<svg id="Layer_1" data-name="Layer 1" xmlns="http://www.w3.org/2000/svg" viewBox="0 0 477 413.09"><defs><style>.cls-1{fill:#2a3785;}.cls-2{fill:#fff;}</style></defs><path class="cls-1" d="M61.5,107.55,300,520.65l238.5-413.1Zm112,64.67h253L300,391.32Z" transform="translate(-61.5 -107.55)"/><rect class="cls-1" x="1.5" y="110.45" width="475" height="86"/><g id="Layer_3" data-name="Layer 3"><path class="cls-2" d="M185.84,267.54v19.23H168V267.31l-20-33.53h18.85l10.82,18.32,10.9-18.32h17.25Z" transform="translate(-61.5 -107.55)"/><path class="cls-2" d="M307.17,233.78l-17,53H271.06l-8.55-28.31-9,28.31H234.36l-17-53h18.39L245,263.91l9.76-30.13h16.43l9.23,30.51,9.76-30.51Z" transform="translate(-61.5 -107.55)"/><path class="cls-2" d="M337.74,284.46a26.29,26.29,0,0,1-10.55-9.84,28.78,28.78,0,0,1,0-28.69,26.29,26.29,0,0,1,10.55-9.84,32.28,32.28,0,0,1,15.14-3.52,33.2,33.2,0,0,1,13.78,2.73,25.7,25.7,0,0,1,10,7.87l-11.28,10.07Q360.45,247,353.79,247a11.82,11.82,0,0,0-9,3.6q-3.4,3.59-3.4,9.64t3.4,9.65a11.82,11.82,0,0,0,9,3.6q6.66,0,11.58-6.21l11.28,10.07a25.61,25.61,0,0,1-10,7.87A33.2,33.2,0,0,1,352.88,288,32.28,32.28,0,0,1,337.74,284.46Z" transform="translate(-61.5 -107.55)"/><path class="cls-2" d="M432.27,277.53H412.14l-3.56,9.24H390.42l23.16-53h17.56l23.16,53H435.83Zm-4.91-12.86-5.15-13.33-5.15,13.33Z" transform="translate(-61.5 -107.55)"/></g></svg>